<svg width="42" height="39" viewBox="0 0 42 39" fill="none" xmlns="http://www.w3.org/2000/svg">
<path d="M27.7314 1.5L27.6963 3.03418L27.5781 8.20215L31.9258 5.5752L33.2383 4.78223L34.002 6.1123L38.8994 14.6406L39.6768 15.9932L38.2939 16.7168L33.7412 19.0967L38.3203 21.6094L39.6553 22.3418L38.9033 23.666L34.0059 32.2803L33.2344 33.6367L31.9092 32.8125L27.5254 30.085L27.6963 35.1758L27.748 36.7266H14.8516L14.9033 35.1768L15.0752 29.9668L10.6777 32.6484L9.36914 33.4463L8.59961 32.1201L3.70215 23.6777L2.93555 22.3555L4.27148 21.6133L8.80176 19.0967L4.29785 16.7129L2.93848 15.9932L3.69238 14.6523L8.58984 5.94336L9.36426 4.56641L10.6992 5.41016L15.0117 8.1377L14.9023 3.03223L14.8691 1.5H27.7314Z" fill="#9D89FC" stroke="#051A2F" stroke-width="3"/>
</svg>
